<svg xmlns="http://www.w3.org/2000/svg">
    <symbol id="fb" viewBox="0 0 32 32">
        <path fill-rule="evenodd" d="M16 0C7.2 0 0 7.2 0 16c0 7.7 5.5 14.2 12.8 15.7v-14H9.6v-3.3h3.2v-3.2c0-2.6 1.7-4.8 4.8-4.8h3.2v3.2h-2.4c-1 0-1.6.6-1.6 1.6v3.2h4l-.8 3.2h-3.2V32c8.5-.5 15.2-7.4 15.2-16 0-8.8-7.2-16-16-16"/>
    </symbol>

    <symbol id="tw" viewBox="0 0 32 32">
        <path fill-rule="evenodd" d="M25.8 11.2c-.3.8-1 1.6-1.6 2 0 6-3.6 10.8-10.4 10.8-2 0-4.3-.6-5.6-1.6 2.4 0 4.3-.5 5.6-1.6-1.4 0-3-1-3.6-2.4.6 0 1.3.2 2 0-1.7-.5-3-2-3.2-3.6.5.2 1 .4 1.6.4-1.6-1.2-2-3.4-1.2-4.8 2 2.6 4.7 3.8 7.8 4-.2-.4-.2-1-.2-1.2 0-2.3 1.4-3.6 3.6-3.6 1 0 2 .5 2.6 1.2 1-.2 1.8-.6 2.6-1.2-.4 1-1 1.8-2 2.4.7 0 1.3-.3 2-.8M16.2 0C7.4 0 .2 7.2.2 16s7.2 16 16 16 16-7.2 16-16S25 0 16.2 0"/>
    </symbol>

    <symbol id="pin" viewBox="0 0 32 32">
        <path fill-rule="evenodd" d="M32.6 16c0 8.8-7.2 16-16 16-1.6 0-3.2-.2-4.7-.7 0-.8 1-2.4 2-4l1-4c0 1 2 1.8 3 1.8 4.2 0 7.3-4 7.3-9 0-4-3.6-8-9-8-6.8 0-10 5-10 9 0 2.4 1 4.6 3 5.4 0 0 .3 0 .4-.3l1-1.6c0-.2 0-.3-.4-.7-.6-.6-1-1.5-1-2.7 0-3.8 2.8-7 7-7 4 0 6 2.3 6 5.4 0 4.7-1.8 8-4.5 8-1.5 0-2.6-1-2-3 .2-2 1-3.4 1-5 0-1-.6-2-2-2S12.5 15 12.5 17c0 1.4.5 2.3.5 2.3L11.3 27c-.4 1-.2 3-.2 4C5 28.7.7 23 .7 16c0-8.8 7.2-16 16-16s16 7.2 16 16"/>
    </symbol>

    <symbol id="vk" viewBox="0 0 32 32">
        <path fill-rule="evenodd" d="M17.6 16.8h-2.8v4h2.8c1 0 2-1 2-2s-1-2-2-2m6 2.4c0-1.8-.8-3.4-3.2-4 1.8-.6 2.4-2 2.4-3.2 0-2.2-1.3-4-5.6-4h-6.4v16h6.4c5 0 6.4-2.6 6.4-4.8m8.8-3.2c0 8.8-7.2 16-16 16S.4 24.8.4 16s7.2-16 16-16 16 7.2 16 16M17 14.4h-2.2v-3.6H17c1 0 1.8.8 1.8 1.8s-.8 1.8-1.8 1.8"/>
    </symbol>
</svg>